<svg fill="none" xmlns="http://www.w3.org/2000/svg" viewBox="0 0 40 40">
  <path d="M10 31.667c-4.142 0-6.667-3.358-6.667-7.5a7.5 7.5 0 017.5-7.5h.834V15a8.333 8.333 0 1116.666 0v1.667h.834a7.5 7.5 0 017.5 7.5c0 4.142-2.525 7.5-6.667 7.5" stroke="#40AA71" stroke-width="2.5" stroke-linecap="round" stroke-linejoin="round"/>
  <path d="M15 32.5v-6.667c0-.46.373-.833.833-.833h8.334c.46 0 .833.373.833.833V32.5c0 .46-.373.833-.833.833h-8.334A.833.833 0 0115 32.5zm1.666-7.5v-1.667A3.333 3.333 0 0120 20v0a3.333 3.333 0 013.333 3.333V25" stroke="#40AA71" stroke-width="2.5" stroke-linecap="round" stroke-linejoin="round"/>
</svg>
