<svg fill="none" xmlns="http://www.w3.org/2000/svg" viewBox="0 0 305 50">
  <g clip-path="url(#bsPewN6zUuy-a)">
    <path d="M155.53 33.819v-21.48c.272-.015.513-.04.755-.04 3.253-.002 6.506-.038 9.758.011 2.364.036 4.688.455 6.386 2.162.807.811 1.398 1.948 1.731 3.038.434 1.418.425 2.952-.299 4.329-.449.855-1.097 1.614-1.67 2.434 1.591.642 3.032 1.62 3.778 3.369 1.166 2.732.54 6.781-2.381 8.692-1.782 1.166-3.707 1.646-5.771 1.675-4.061.057-8.125.017-12.287.017v-4.207zm14.01-1.461c.268-.268.634-.492.788-.81.98-2.032.16-4.15-2.633-4.341-1.729-.12-3.474-.023-5.211-.023h-1.169v5.826c1.94 0 3.821.062 5.694-.03.809-.039 1.603-.395 2.531-.622zm-7.508-9.542c1.356-.054 2.72-.04 4.067-.18 1.495-.156 2.344-1.007 2.546-2.245.198-1.213-.717-2.696-1.937-2.853-1.793-.23-3.621-.212-5.455-.301 0 1.808.021 3.421-.013 5.034-.01.494.19.607.792.544zm37.808 9.328c-1.69-2.773-2.018-5.777-1.689-8.798.598-5.497 4.39-9.982 10.388-11.146 4.354-.845 8.631-.263 12.167 2.671 2.47 2.05 4.105 4.617 4.513 7.81.333 2.603.34 5.177-.68 7.662-1.138 2.771-3.065 4.894-5.743 6.392-1.822 1.019-3.779 1.485-5.888 1.646-2.686.206-5.216-.167-7.617-1.303-2.313-1.095-4.067-2.787-5.451-4.934zm15.701.389c.675-.49 1.474-.881 2.001-1.49 1.94-2.239 2.427-4.826 1.977-7.698-.559-3.573-4.158-7.039-8.776-6.38-2.737.39-4.658 1.681-5.938 4.005-1.158 2.102-1.254 4.34-.749 6.552.492 2.155 1.734 3.93 3.866 5.014 2.505 1.272 5.001 1.265 7.619-.003zm37.952-9.393V12.344h5.721V26.5l.229.086c.372-.604.754-1.202 1.116-1.812 1.83-3.081 3.658-6.163 5.479-9.25.549-.93 1.055-1.885 1.624-2.803.122-.197.432-.403.658-.406 2.046-.031 4.093-.018 6.301-.018-.611.987-1.155 1.897-1.73 2.788-1.962 3.04-3.942 6.068-5.891 9.116-.125.196-.163.592-.041.763 1.446 2.031 2.935 4.035 4.405 6.05 1.563 2.145 3.12 4.293 4.675 6.442.118.163.201.35.325.569-2.179 0-4.28.012-6.381-.018-.234-.003-.543-.198-.685-.392-1.937-2.657-3.852-5.329-5.782-8.01-1.77 2.632-3.541 5.232-5.263 7.86-.279.426-.559.579-1.055.568-1.202-.026-2.404-.008-3.705-.008V23.139zm28.977 14.72c-1.578-.703-3.113-1.355-4.584-2.12-.973-.505-.961-.764-.345-1.66.809-1.177 1.602-2.363 2.454-3.623 1.468 1.226 3.006 2.133 4.782 2.618 1.744.477 3.472.637 5.22-.047.94-.367 1.551-.923 1.708-1.907.187-1.176-.363-2.041-1.434-2.418-1.443-.506-2.96-.827-4.454-1.19-2.093-.508-4.147-1.136-5.821-2.489a5.793 5.793 0 01-2.092-3.544c-.507-2.836.106-5.348 2.381-7.342 1.547-1.355 3.401-2.08 5.484-2.152 2.484-.086 4.987-.13 7.343.81 1.213.485 2.366 1.108 3.588 1.69l-2.953 4.523c-1.336-.606-2.558-1.3-3.875-1.722-1.474-.472-3.017-.628-4.587-.161-.868.258-1.82 1.326-1.834 2.294-.014 1.02.49 1.732 1.733 2.095 1.837.535 3.737.886 5.547 1.49 1.445.481 2.849 1.134 4.176 1.869 1.638.908 2.317 2.503 2.49 4.21.231 2.286-.155 4.444-1.796 6.307-1.186 1.347-2.686 2.152-4.368 2.586a15.493 15.493 0 01-4.151.493c-1.518-.033-3.028-.39-4.612-.61zm-49.34-13.686c-.067 1.593.059 3.092.674 4.507 1.115 2.565 3.011 4.19 5.949 4.667 3.084.5 5.456-.62 7.509-2.868.691.735 1.362 1.429 2.008 2.145.393.435.72.927 1.124 1.351.415.436.248.736-.121 1.084-1.805 1.706-3.929 2.741-6.447 3.148-3.407.55-6.636.198-9.683-1.395-2.709-1.416-4.55-3.584-5.724-6.292-.872-2.01-1.138-4.133-1.005-6.284.358-5.773 3.981-10.756 10.441-12.033 3.198-.632 6.558-.634 9.558 1.08 1.217.694 2.325 1.564 3.549 2.4l-3.682 4.06c-.592-.487-1.186-1.034-1.839-1.505-2.921-2.106-7.595-1.74-10.058 1-1.211 1.346-1.957 2.813-2.103 4.576-.008.098-.096.19-.15.359z" fill="#fff"/>
    <path d="M75.117 31.822c-1.36-2.505-1.76-5.146-1.543-7.854.388-4.81 2.763-8.468 7.22-10.76 1.741-.895 3.648-1.224 5.65-1.26 2.538-.047 4.956.278 7.179 1.495 3.549 1.943 5.705 4.86 6.538 8.71.564 2.61.409 5.2-.417 7.7-.94 2.841-2.813 5.097-5.45 6.7-1.811 1.102-3.806 1.64-5.965 1.832-2.078.184-4.09.007-6.016-.628-3.163-1.043-5.597-2.997-7.196-5.935zm19.239-.12c1.978-2.619 2.505-5.543 1.92-8.678-.715-3.84-2.989-6.403-6.94-7.411-2.397-.612-4.843-.425-6.967.814-4.425 2.582-5.544 6.912-4.698 11.167.435 2.186 1.574 4.052 3.441 5.508 2.336 1.822 4.986 2.124 7.801 1.73 2.196-.308 3.91-1.481 5.443-3.13zm35.608-19.573c1.692 1.765 3.387 3.528 5.077 5.295.583.61 1.15 1.233 1.733 1.843 1.997 2.086 4.005 4.162 5.995 6.254 1.122 1.18 2.216 2.384 3.475 3.742v-16.92h3.861V38.45l-.173.13-16.457-17.47c0 5.648 0 11.127-.041 16.696-.078.116-.104.15-.12.192-1.128.008-2.256.015-3.478-.017-.121-.075-.157-.1-.2-.115-.009-3.254-.024-6.509-.027-9.763-.003-5.273.002-10.545.07-15.893a.528.528 0 01.285-.082zm-27.51 24.401c2.077-4.368 4.117-8.685 6.148-13.005 1.67-3.55 3.328-7.105 4.994-10.656.121-.257.271-.502.543-1.004l12.367 26.32c-1.381 0-2.628.021-3.872-.024-.19-.007-.437-.297-.538-.51a123.654 123.654 0 01-1.893-4.116c-.177-.408-.396-.54-.854-.536-3.506.02-7.013.015-10.519.005-.438 0-.643.1-.827.556-.574 1.422-1.252 2.806-1.925 4.188-.094.193-.383.413-.589.42-1.201.04-2.405.02-3.73.02a56.68 56.68 0 01.695-1.658zm12.931-6.757h3.133l-4.418-9.502-4.413 9.502h5.698z" fill="#9DA7A2"/>
    <path d="M185.659 19.58v13.56h11.228v4.838h-16.902V12.347h5.674v7.232z" fill="#fff"/>
    <path d="M57.401 12.298h2.167v22.321H72.17v3.346H55.773V12.298h1.628zm-36.529 22.17V32.41h10.73v10.245h-10.73v-8.188zm-2.188 4.852v3.35H7.954V32.425h10.73v6.895zm0-26.375v4.968H7.954V7.668h10.73v5.277z" fill="#9DA7A2"/>
    <path d="M20.872 28.638v-8.526h10.723v10.262H20.872v-1.736z" fill="#fff"/>
    <path d="M7.911 24.434v-4.321h10.73v10.245H7.911v-5.924z" fill="#9DA7A2"/>
    <path d="M23.062 17.961h-2.14V7.653h10.673V17.96h-8.533zm10.771 6.473v-4.37c2.04 0 4.045.044 6.048-.014 1.407-.04 2.49.51 3.42 1.436.783.78 1.227 1.77 1.276 2.812.096 2.01.028 4.027.028 6.081H33.833v-5.945zm0 14.886v-6.91h10.601c0 2.29.117 4.59-.042 6.874-.102 1.459-2.09 3.178-3.615 3.247-2.276.1-4.56.026-6.944.026V39.32z" fill="#fff"/>
    <path d="M129.942 12.083c-.051.048-.124.05-.251.053a.364.364 0 01.251-.053zm-.31 25.825c.048-.026.083-.001.126.063-.033.011-.082-.005-.126-.063zm3.725.095c-.027-.046-.001-.08.065-.12.012.031-.005.078-.065.12z" fill="#5E6C5B" fill-opacity=".31"/>
  </g>
  <defs>
    <clipPath id="bsPewN6zUuy-a">
      <path fill="#fff" d="M0 0h305v50H0z"/>
    </clipPath>
  </defs>
</svg>
