<svg fill="none" xmlns="http://www.w3.org/2000/svg" viewBox="0 0 1438 549">
  <g clip-path="url(#3XBtNTcpYJJ8a)">
    <path fill="#E5FBEF" d="M0 0h1440v686H0z"/>
    <path d="M1978.98 648.681c-55.43 46.512-121.48 79.272-194.36 96.412-72.89 17.139-151.19 18.322-230.43 3.481-79.25-14.841-157.88-45.416-231.42-89.978-73.54-44.563-140.54-102.241-197.18-169.74-56.64-67.5-101.81-143.5-132.924-223.66-31.116-80.161-47.571-162.912-48.426-243.53-.855-80.618 13.907-157.523 43.442-226.324 29.538-68.802 73.268-128.153 128.698-174.664l431.3 514.002 431.3 514.001z" fill="#40AA71"/>
  </g>
  <defs>
    <clipPath id="3XBtNTcpYJJ8a">
      <path fill="#fff" d="M0 0h1440v549H0z"/>
    </clipPath>
  </defs>
</svg>
